# xmcd
#
# Track frame offsets: 
#        150
#        18974
#        39088
#        57293
#        74320
#        96762
#        103039
#        120562
#        142245
#        158562
#        177956
#
# Disc length: 2621 seconds
#
# Revision: 1
# Processed by: cddbd v1.5.2PL0 Copyright (c) Steve Scherf et al.
# Submitted via: ExactAudioCopy v0.99pb3
#
DISCID=8b0a3b0b
DTITLE=張敬軒 - My Way
DYEAR=2002
DGENRE=R&B
TTITLE0=My Way
TTITLE1=斷點
TTITLE2=自愛
TTITLE3=Paris
TTITLE4=明了
TTITLE5=Interlude
TTITLE6=釋放
TTITLE7=聲音
TTITLE8=晚妝
TTITLE9=我的寶貝
TTITLE10=My Way
EXTD=
EXTT0=
EXTT1=
EXTT2=
EXTT3=
EXTT4=
EXTT5=
EXTT6=
EXTT7=
EXTT8=
EXTT9=
EXTT10=
PLAYORDER=
